<svg width="0" height="0" class="hidden">
  <symbol fill="none" xmlns="http://www.w3.org/2000/svg" viewBox="0 0 14 12" id="heart_hover">
    <path d="M6.75 12C6.612 12 6.47398 11.9618 6.35248 11.886C6.09298 11.724 0 7.86825 0 3.75C0 1.68225 1.68225 0 3.75 0C4.9455 0 6.05325 0.627717 6.75 1.55997C7.44675 0.627717 8.5545 0 9.75 0C11.8177 0 13.5 1.68225 13.5 3.75C13.5 7.86825 7.40702 11.724 7.14752 11.886C7.02602 11.9618 6.888 12 6.75 12Z" fill="#4F2CD9"></path>
  </symbol>
 <symbol fill="none" xmlns="http://www.w3.org/2000/svg" viewBox="0 0 14 12" id="heart">
            <path d="M13.5 24C13.224 24 12.948 23.9235 12.705 23.772C12.186 23.448 0 15.7365 0 7.5C0 3.3645 3.3645 0 7.5 0C9.891 0 12.1065 1.25543 13.5 3.11993C14.8935 1.25543 17.109 0 19.5 0C23.6355 0 27 3.3645 27 7.5C27 15.7365 14.814 23.448 14.295 23.772C14.052 23.9235 13.776 24 13.5 24ZM7.5 3C5.019 3 3 5.019 3 7.5C3 12.5445 9.9645 18.3105 13.5 20.709C17.0355 18.3105 24 12.546 24 7.5C24 5.019 21.981 3 19.5 3C16.9665 3 15 5.4195 15 7.5C15 8.328 14.328 9 13.5 9C12.672 9 12 8.328 12 7.5C12 5.4195 10.0335 3 7.5 3Z" fill="black"/>
  </symbol>
</svg>